<svg width="100" height="100" viewBox="0 0 100 100" xmlns="http://www.w3.org/2000/svg">
  <defs>
    <linearGradient id="gradient" x1="0%" y1="0%" x2="100%" y2="100%">
      <stop offset="0%" style="stop-color:#5DCCEE"/>
      <stop offset="100%" style="stop-color:#2E86AB"/>
    </linearGradient>
  </defs>
  
  <!-- Chat bubble -->
  <path d="M20 15 C15 15 10 20 10 25 L10 55 C10 60 15 65 20 65 L25 65 L30 75 L35 65 L70 65 C75 65 80 60 80 55 L80 25 C80 20 75 15 70 15 Z" fill="url(#gradient)"/>
  
  <!-- Play button -->
  <circle cx="45" cy="40" r="15" fill="white"/>
  <path d="M40 30 L55 40 L40 50 Z" fill="#2E86AB"/>
  
  <!-- Text lines -->
  <rect x="20" y="20" width="15" height="2" fill="white" opacity="0.8"/>
  <rect x="20" y="25" width="10" height="2" fill="white" opacity="0.8"/>
  <rect x="20" y="50" width="12" height="2" fill="white" opacity="0.8"/>
  <rect x="20" y="55" width="8" height="2" fill="white" opacity="0.8"/>
</svg>